<svg width="70" height="50" viewBox="0 0 70 50" fill="none" xmlns="http://www.w3.org/2000/svg">
<path d="M62.9946 49.3168V49.4454H63.1144C63.1369 49.4457 63.1591 49.4401 63.1787 49.429C63.1865 49.4235 63.1928 49.4161 63.197 49.4075C63.2012 49.3989 63.2032 49.3894 63.2028 49.3798C63.2032 49.3705 63.2012 49.3611 63.197 49.3527C63.1927 49.3444 63.1865 49.3372 63.1787 49.332C63.1593 49.3203 63.137 49.3146 63.1144 49.3156H62.9946V49.3168ZM63.1157 49.2259C63.1671 49.2228 63.2179 49.2375 63.2597 49.2677C63.2764 49.2814 63.2896 49.2988 63.2984 49.3186C63.3072 49.3383 63.3112 49.3598 63.3101 49.3814C63.3109 49.4 63.3076 49.4185 63.3007 49.4358C63.2937 49.453 63.2831 49.4685 63.2696 49.4814C63.2374 49.5093 63.1971 49.5261 63.1546 49.5292L63.3152 49.7124H63.1915L63.0437 49.5305H62.9959V49.7124H62.8924V49.2262H63.1173L63.1157 49.2259ZM63.0836 49.8801C63.1378 49.8806 63.1916 49.8697 63.2413 49.848C63.2893 49.8273 63.3329 49.7978 63.3699 49.7609C63.4069 49.7241 63.4364 49.6804 63.4569 49.6324C63.4991 49.5305 63.4991 49.4161 63.4569 49.3143C63.4361 49.2664 63.4066 49.2228 63.3699 49.1858C63.3329 49.1489 63.2893 49.1193 63.2413 49.0987C63.1913 49.0782 63.1377 49.0679 63.0836 49.0685C63.0286 49.068 62.974 49.0782 62.9229 49.0987C62.8739 49.1189 62.8293 49.1485 62.7915 49.1858C62.7347 49.2441 62.6962 49.3178 62.681 49.3978C62.6657 49.4778 62.6743 49.5605 62.7057 49.6356C62.7253 49.6838 62.7545 49.7275 62.7915 49.7641C62.8293 49.8013 62.8739 49.8309 62.9229 49.8512C62.9737 49.8729 63.0284 49.8838 63.0836 49.8833M63.0836 48.9515C63.2248 48.9514 63.3604 49.0068 63.4611 49.1058C63.5097 49.1533 63.5483 49.21 63.5749 49.2725C63.6023 49.3367 63.6165 49.4059 63.6165 49.4757C63.6165 49.5456 63.6023 49.6147 63.5749 49.679C63.5477 49.7412 63.5091 49.7977 63.4611 49.8457C63.4118 49.893 63.3545 49.9311 63.2918 49.9582C63.226 49.9861 63.1551 50.0004 63.0836 49.9999C63.0112 50.0005 62.9395 49.9862 62.8728 49.9582C62.8094 49.9317 62.7515 49.8936 62.7022 49.8457C62.6542 49.796 62.6161 49.7375 62.59 49.6735C62.5626 49.6093 62.5484 49.5401 62.5484 49.4703C62.5484 49.4004 62.5626 49.3313 62.59 49.267C62.6166 49.2045 62.6552 49.1478 62.7038 49.1003C62.7525 49.0516 62.8105 49.0134 62.8744 48.9878C62.9411 48.9598 63.0128 48.9455 63.0852 48.9461M13.8855 47.0741C13.8855 46.1472 14.4928 45.3857 15.4853 45.3857C16.4338 45.3857 17.0738 46.1144 17.0738 47.0741C17.0738 48.0339 16.4338 48.7626 15.4853 48.7626C14.4928 48.7626 13.8855 48.0011 13.8855 47.0741ZM18.155 47.0741V44.4362H17.0083V45.0788C16.6445 44.604 16.0929 44.3061 15.3426 44.3061C13.8646 44.3061 12.7047 45.4654 12.7047 47.0754C12.7047 48.6855 13.864 49.8447 15.3426 49.8447C16.0925 49.8447 16.6445 49.5466 17.0083 49.072V49.7124H18.1537V47.0741H18.155ZM56.9017 47.0741C56.9017 46.1472 57.5089 45.3857 58.5018 45.3857C59.4512 45.3857 60.0903 46.1144 60.0903 47.0741C60.0903 48.0339 59.4512 48.7626 58.5018 48.7626C57.5093 48.7626 56.9017 48.0011 56.9017 47.0741ZM61.1725 47.0741V42.3188H60.0248V45.0788C59.661 44.604 59.1094 44.3061 58.3591 44.3061C56.8811 44.3061 55.7212 45.4654 55.7212 47.0754C55.7212 48.6855 56.8805 49.8447 58.3591 49.8447C59.1094 49.8447 59.661 49.5466 60.0248 49.072V49.7124H61.1725V47.0741ZM32.3875 45.3314C33.1265 45.3314 33.601 45.7947 33.7222 46.6105H30.9859C31.1084 45.849 31.5707 45.3314 32.3878 45.3314M32.4106 44.3032C30.8651 44.3032 29.7839 45.4278 29.7839 47.0725C29.7839 48.7494 30.9085 49.8419 32.4874 49.8419C33.2817 49.8419 34.0091 49.6436 34.6491 49.1029L34.0872 48.253C33.6451 48.6064 33.0821 48.8047 32.5529 48.8047C31.8139 48.8047 31.1411 48.4625 30.9757 47.513H34.8914C34.9026 47.3704 34.9142 47.2264 34.9142 47.0722C34.9026 45.4281 33.886 44.3029 32.41 44.3029M46.255 47.0722C46.255 46.1453 46.8622 45.3838 47.8547 45.3838C48.8032 45.3838 49.4433 46.1125 49.4433 47.0722C49.4433 48.032 48.8032 48.7607 47.8547 48.7607C46.8622 48.7607 46.2546 47.9992 46.2546 47.0722M50.5241 47.0722V44.4362H49.378V45.0788C49.013 44.604 48.4626 44.3061 47.7124 44.3061C46.2344 44.3061 45.0745 45.4654 45.0745 47.0754C45.0745 48.6855 46.2337 49.8447 47.7124 49.8447C48.4626 49.8447 49.013 49.5466 49.378 49.072V49.7124H50.5244V47.0741L50.5241 47.0722ZM39.7791 47.0722C39.7791 48.672 40.8927 49.8415 42.5924 49.8415C43.3867 49.8415 43.9159 49.6648 44.4881 49.2127L43.9374 48.2858C43.5068 48.5952 43.0548 48.7607 42.5558 48.7607C41.6404 48.7494 40.9673 48.0875 40.9673 47.0722C40.9673 46.0569 41.6404 45.3953 42.5558 45.3838C43.0535 45.3838 43.5056 45.5492 43.9374 45.8587L44.4881 44.9317C43.9149 44.4796 43.3857 44.3029 42.5924 44.3029C40.8927 44.3029 39.7791 45.4721 39.7791 47.0722ZM54.5623 44.3029C53.9007 44.3029 53.4698 44.6123 53.172 45.0756V44.4362H52.0355V49.7095H53.1836V46.7535C53.1836 45.8808 53.5585 45.396 54.3081 45.396C54.5536 45.3924 54.7973 45.4375 55.0253 45.5287L55.3787 44.4478C55.1249 44.3479 54.7939 44.3039 54.5616 44.3039M23.8244 44.8555C23.2727 44.4918 22.5125 44.3039 21.6739 44.3039C20.3379 44.3039 19.4778 44.9442 19.4778 45.992C19.4778 46.8518 20.1182 47.3823 21.2973 47.5477L21.8391 47.6249C22.4679 47.7132 22.7647 47.8787 22.7647 48.1765C22.7647 48.5843 22.347 48.8169 21.5627 48.8169C20.7685 48.8169 20.1953 48.5631 19.8087 48.2652L19.2699 49.1594C19.8987 49.6227 20.693 49.8438 21.5531 49.8438C23.0761 49.8438 23.9587 49.1266 23.9587 48.1226C23.9587 47.1956 23.264 46.7108 22.1163 46.5453L21.5759 46.4669C21.0795 46.4026 20.6817 46.3027 20.6817 45.9493C20.6817 45.5637 21.0567 45.3317 21.6858 45.3317C22.3589 45.3317 23.0105 45.5855 23.3299 45.7838L23.8263 44.8568L23.8244 44.8555ZM38.6208 44.3048C37.9592 44.3048 37.5283 44.6142 37.2318 45.0776V44.4362H36.0953V49.7095H37.2421V46.7535C37.2421 45.8808 37.617 45.396 38.3666 45.396C38.6121 45.3924 38.8558 45.4375 39.0838 45.5287L39.4372 44.4478C39.1834 44.3479 38.8524 44.3039 38.6201 44.3039M28.8351 44.4362H26.96V42.8365H25.8007V44.4362H24.7311V45.4843H25.8007V47.8899C25.8007 49.1135 26.2756 49.8422 27.6322 49.8422C28.1299 49.8422 28.7031 49.688 29.0668 49.4344L28.7355 48.4525C28.3933 48.6508 28.0184 48.7507 27.7202 48.7507C27.147 48.7507 26.96 48.3973 26.96 47.8681V45.4853H28.8351V44.4362ZM11.6907 49.7108V46.4013C11.6907 45.155 10.8964 44.3164 9.61602 44.3052C8.94288 44.2939 8.24855 44.5034 7.76241 45.2434C7.3987 44.6586 6.82549 44.3052 6.01966 44.3052C5.45641 44.3052 4.90602 44.4706 4.47515 45.0882V44.4362H3.32745V49.7095H4.48415V46.7856C4.48415 45.8702 4.99181 45.3838 5.77579 45.3838C6.53728 45.3838 6.92252 45.8802 6.92252 46.774V49.7088H8.08179V46.785C8.08179 45.8696 8.61098 45.3831 9.37215 45.3831C10.1552 45.3831 10.5288 45.8795 10.5288 46.7734V49.7082L11.6907 49.7108Z" fill="#231F20"/>
<path d="M63.6484 32.1696V31.3985H63.4476L63.2153 31.9277L62.9843 31.3985H62.7828V32.1696H62.9255V31.5887L63.1427 32.0899H63.2905L63.5077 31.5874V32.1696H63.649H63.6484ZM62.3744 32.1696V31.5306H62.6315V31.4004H61.9747V31.5306H62.2318V32.1696H62.3731H62.3744Z" fill="#F79410"/>
<path d="M40.8239 35.4768H23.4459V4.24609H40.8242L40.8239 35.4768Z" fill="#FF5F00"/>
<path d="M24.5476 19.8621C24.5476 13.5269 27.5139 7.88354 32.133 4.2467C28.6366 1.48974 24.3121 -0.0065574 19.8595 2.16028e-05C8.89113 2.16028e-05 0 8.89243 0 19.8621C0 30.8317 8.89113 39.7241 19.8595 39.7241C24.3122 39.7308 28.6368 38.2345 32.1333 35.4774C27.5145 31.8412 24.5476 26.1975 24.5476 19.8621Z" fill="#EB001B"/>
<path d="M64.2688 19.8621C64.2688 30.8317 55.3777 39.7241 44.4093 39.7241C39.9562 39.7306 35.6311 38.2344 32.1339 35.4774C36.7543 31.8406 39.7205 26.1975 39.7205 19.8621C39.7205 13.5266 36.7543 7.88354 32.1339 4.2467C35.631 1.48982 39.9559 -0.00644208 44.409 2.08493e-05C55.3774 2.08493e-05 64.2685 8.89243 64.2685 19.8621" fill="#F79E1B"/>
</svg>
